<svg viewBox="0 0 500 100" xmlns="http://www.w3.org/2000/svg"><path d="M32.9 85.2c-3 0-5.1-1.5-4.1-4.6L49.4 16c3.3-.3 6.6-.5 10-.5 14.2 0 23.8 2.9 23.8 14.8 0 11.3-9 37.4-17.7 45.9-7.2 6.8-16.7 9-32.6 9m402.5 1.7c-10 0-15.7-4.1-15.7-14.8 0-13.3 9-40 19.3-50.3 5.3-5.3 11.6-7.8 20-7.8 10 0 14.9 4.2 14.9 14 0 12.9-10.1 43.8-20.8 52.9-5 4.1-11.2 6.2-17.7 6M308.9 4.5h-16l-20.3 64.4-23.9-64.4h-30.2l4.2 9.2-26.4 82.8h16L234 28.9l25.6 67.6h19.7l29.6-92zm-104.4 0h-74.1l4.2 9.2-26.4 82.8h70l3.5-11.4h-41.5c-3 0-5.3-1.4-4.2-4.7l8.4-26h31l3.5-11.4h-31l8.7-26.9h44.3l3.6-11.6zm-181.4 0l4.3 9.2L1 96.5h31.1c17.7 0 33.8-2.9 46.8-11.9 15.9-11.2 26.5-35.2 26.5-53.9 0-20.6-17.5-26.2-42.8-26.2H23.1zm439.6-1.8c-16.6 0-29.2 4.2-38.9 11.3-15.1 11-27 39.4-27 58.5s13.5 25.9 35.2 25.9c15.1 0 26.9-3.7 36.4-10.1C485.1 77 497 48 497 28.8c-.1-18.9-13.2-26.1-34.3-26.1m-96.3 0c-12.7 0-25.4 2.7-34.3 8.7-7.3 5-12.2 12.1-12.2 21.6 0 21.5 36.3 26.1 36.3 38.9 0 10.4-10.3 15.6-23 15.6-13.2 0-24-7.8-27.2-9.8l-5 16.5c10.3 2.9 20.8 4.2 31.5 4.2 24.6 0 48.3-10.1 48.3-32.5 0-22-35.8-27-35.8-39.6 0-8.9 8.8-12.2 19.2-12.2 8.7 0 17.2 2.5 24.3 7.3l5-15.4c-8.9-2.2-17.9-3.2-27.1-3.3" fill="#dc0032"/></svg>